<svg id="Layer_1" data-name="Layer 1" xmlns="http://www.w3.org/2000/svg" xmlns:xlink="http://www.w3.org/1999/xlink" viewBox="0 0 1312 961.01"><defs><style>.cls-1{fill:#f2f2f2;}.cls-16,.cls-2{fill:none;stroke:#3f3d56;stroke-miterlimit:10;}.cls-3{fill:#57b894;}.cls-4{fill:#656380;}.cls-22,.cls-5{opacity:0.2;}.cls-10,.cls-17,.cls-29,.cls-5{isolation:isolate;}.cls-17,.cls-6{fill:#0da3f7;}.cls-7{fill:#a0616a;}.cls-8{fill:#575a89;}.cls-9{fill:#3f3d56;}.cls-10,.cls-17,.cls-18{opacity:0.1;}.cls-11{fill:#2f2e41;}.cls-12{fill:#ffb9b9;}.cls-13{fill:#e6e6e6;}.cls-14{fill:#fff;}.cls-15{fill:gold;}.cls-16{stroke-width:2px;}.cls-19{fill:url(#linear-gradient);}.cls-20{fill:#535461;}.cls-21{fill:#f6f7f9;}.cls-23{fill:#dce0ed;}.cls-24{fill:url(#linear-gradient-2);}.cls-25{fill:#65617d;}.cls-26{fill:#a27772;}.cls-27{fill:#fbbebe;}.cls-28{fill:#7c7cdd;}.cls-29{opacity:0.05;}.cls-30{fill:#7c5c5c;}.cls-31{fill:#ffd037;}.cls-32{fill:#a8a8a8;}</style><linearGradient id="linear-gradient" x1="413.67" y1="34.82" x2="413.67" y2="452.35" gradientTransform="matrix(1, 0, 0, -1, -59.52, 976.35)" gradientUnits="userSpaceOnUse"><stop offset="0" stop-color="gray" stop-opacity="0.25"/><stop offset="0.54" stop-color="gray" stop-opacity="0.12"/><stop offset="1" stop-color="gray" stop-opacity="0.1"/></linearGradient><linearGradient id="linear-gradient-2" x1="658.76" y1="10.92" x2="658.76" y2="389" xlink:href="#linear-gradient"/></defs><title>banner</title><path class="cls-1" d="M794.26,429.78s237.59-198.29,374.43,0" transform="translate(-13 -21.99)"/><ellipse class="cls-1" cx="1171.14" cy="509.44" rx="110.04" ry="17.15"/><ellipse class="cls-2" cx="1189" cy="503.01" rx="110.04" ry="17.15"/><path class="cls-3" d="M1248.8,347.57a11.09,11.09,0,1,0,1.47-21.28l.28,5.71-2.7-4.89a11.09,11.09,0,0,0,1,20.46Z" transform="translate(-13 -21.99)"/><path class="cls-2" d="M1262.17,413.81c-1-4.85,3.17-9.16,7.26-12s8.85-5.55,10.24-10.3c2-6.82-4-13.07-8.6-18.47a66.87,66.87,0,0,1-8.81-13.09,18,18,0,0,1-2.11-5.95c-.36-3,.61-6,1.59-8.92q4.89-14.43,10.46-28.61" transform="translate(-13 -21.99)"/><path class="cls-2" d="M1249.25,346.1a11.09,11.09,0,1,0,1.48-21.28l.28,5.71-2.7-4.89a11.09,11.09,0,0,0,.94,20.46Z" transform="translate(-13 -21.99)"/><path class="cls-3" d="M1260.81,314.54a11.1,11.1,0,0,1,8-7l.91,5.43,1.69-5.7a11.1,11.1,0,1,1-11.25,10.93,10.88,10.88,0,0,1,.66-3.62Z" transform="translate(-13 -21.99)"/><path class="cls-2" d="M1261.42,312.58a11.08,11.08,0,0,1,8-7l.91,5.43,1.69-5.7a11.12,11.12,0,1,1-10.59,7.31Z" transform="translate(-13 -21.99)"/><path class="cls-3" d="M1269.12,373.19a11.09,11.09,0,0,0,9.82-19.73l-1.3,4.38-.92-5.5h0a11.1,11.1,0,0,0-7.57,20.86Z" transform="translate(-13 -21.99)"/><path class="cls-2" d="M1269.65,371.21a11.1,11.1,0,0,0,9.82-19.74l-1.3,4.38-.92-5.49h0a11.09,11.09,0,1,0-7.59,20.85Z" transform="translate(-13 -21.99)"/><path class="cls-3" d="M1257.57,391.62a11.09,11.09,0,1,0,2.14-8.69l4.94,7.44-6.75-3.95A10.92,10.92,0,0,0,1257.57,391.62Z" transform="translate(-13 -21.99)"/><path class="cls-2" d="M1258,390.15a11.09,11.09,0,1,0,2.14-8.69l4.94,7.44-6.75-3.95A10.91,10.91,0,0,0,1258,390.15Z" transform="translate(-13 -21.99)"/><path class="cls-4" d="M1246.76,420.39s9.79-3.83,12.74-5.93,15.06-4.62,15.8-1.25S1290,430,1279,430.06s-25.69,1.82-28.63,0S1246.76,420.39,1246.76,420.39Z" transform="translate(-13 -21.99)"/><path class="cls-5" d="M1279.15,428.89c-11.05.09-25.68,1.82-28.63,0-2.24-1.36-3.13-6.27-3.43-8.53h-.33s.62,7.9,3.57,9.69,17.57.07,28.63,0c3.19,0,4.29-1.16,4.23-2.84C1282.75,428.24,1281.53,428.87,1279.15,428.89Z" transform="translate(-13 -21.99)"/><rect class="cls-6" x="774.47" y="295.25" width="42.87" height="112.9" rx="8.47" ry="8.47"/><rect class="cls-6" x="855.93" y="227.37" width="42.87" height="180.78" rx="8.47" ry="8.47"/><rect class="cls-6" x="937.39" y="180.21" width="42.87" height="227.94" rx="8.47" ry="8.47"/><rect class="cls-6" x="1018.85" y="135.19" width="42.87" height="272.96" rx="8.47" ry="8.47"/><rect class="cls-6" x="1100.31" y="56.59" width="42.87" height="351.56" rx="8.47" ry="8.47"/><rect class="cls-2" x="780.19" y="289.54" width="42.87" height="112.9" rx="8.47" ry="8.47"/><rect class="cls-2" x="861.65" y="221.66" width="42.87" height="180.78" rx="8.47" ry="8.47"/><rect class="cls-2" x="943.11" y="174.49" width="42.87" height="227.94" rx="8.47" ry="8.47"/><rect class="cls-2" x="1024.57" y="129.48" width="42.87" height="272.96" rx="8.47" ry="8.47"/><rect class="cls-2" x="1106.03" y="50.88" width="42.87" height="351.56" rx="8.47" ry="8.47"/><line class="cls-2" x1="1276.09" y1="408.51" x2="660.86" y2="408.51"/><path class="cls-7" d="M1250.29,362s6.73,24.2-1.79,27.79-5.83-26.9-5.83-26.9Z" transform="translate(-13 -21.99)"/><path class="cls-8" d="M1189.32,517.07s-6.27-.45-8.51.9a5.44,5.44,0,0,1-4.49.44s-9.86-.89-6.27,4,7.17,6.72,7.17,9,14.79,2.25,15.24,0,.9-13.89,0-14.34S1189.32,517.07,1189.32,517.07Z" transform="translate(-13 -21.99)"/><path class="cls-8" d="M1205.91,517.07s6.28-.45,8.52.9a5.42,5.42,0,0,0,4.48.44s9.87-.89,6.28,4-7.17,6.72-7.17,9-14.8,2.25-15.25,0-.89-13.89,0-14.34S1205.91,517.07,1205.91,517.07Z" transform="translate(-13 -21.99)"/><path class="cls-9" d="M1170.94,357s-3.13,70.84-1.34,74.42,8.07,64.11,7.17,67.7-5.38,18.38,0,20.62,17,0,17,0,3.14-17.93,1.79-27.35-1.79-48.86-1.79-48.86l9-41.25,3.14,39s.9,53.34-5.38,64.1,2.24,15.25,2.24,15.25,17,2.24,18.83,1.79-1.34-17.93,0-25.55,4.49-50.22,7.18-60.53,17.93-67.69,6.72-79.35S1170.94,357,1170.94,357Z" transform="translate(-13 -21.99)"/><circle class="cls-7" cx="1190.67" cy="176.34" r="15.69"/><path class="cls-7" d="M1192,205.5s2.69,21.52,1.35,22,23.76,0,23.76,0-4.93-13,0-23.31Z" transform="translate(-13 -21.99)"/><path class="cls-1" d="M1192,223s10.93-10.76,23.85,0l.83,3.21-6.74-.07H1192Z" transform="translate(-13 -21.99)"/><path class="cls-8" d="M1245.36,360.61c-1,.21-3.57.63-6.88,1.13-11,1.66-30.53,4.18-31.22,2.46-.9-2.24-4-10.31-6.28-6.73s-.9,6.73-10.31,7.17a77.13,77.13,0,0,1-20.87-2.11c-2.42-.7-3.93-1.51-3.79-2.37.45-2.69,5.38-53.79,5.38-58.73s1.8-28.69,1.8-28.69l-12.89-25.35-1-2s1.34-4.94,5.38-5.83S1188,227.46,1188,227.46s4-6.27,11.66-5.82,9.41-2.69,19.72,5.82c0,0,12.55,5.38,17,8.07s9.41,2.69,9.86,7.18a13.66,13.66,0,0,1-1.24,4.82c-3.07,8-10.83,22.25-12,24.47l-.17.29s-.23,8.06,0,17.5v0c.25,9.06.93,19.37,2.68,25.07C1239.09,326.54,1249.85,359.71,1245.36,360.61Z" transform="translate(-13 -21.99)"/><path class="cls-9" d="M1224,191.88a10.72,10.72,0,0,0-1.77-4,21.42,21.42,0,0,0-3.2-9.22,9.7,9.7,0,0,0-2.86-3.31,8.57,8.57,0,0,0-4.51-1.12c-.28,0-.8.08-1.26.1l-.9-.25c-.17-.39-.52-1.52-.62-1.44l-1.3,1c-.56-.09-1.11-.17-1.67-.23-.2-.57-.41-1.15-.61-1.73a10.91,10.91,0,0,0-.86,1.62c-.56,0-1.11,0-1.67,0l-1.11-1.07a1.55,1.55,0,0,1-1.23,1.2c-.51.06-1,.13-1.52.21h-.13c-2.73-.07-5.68-.19-8,1.31a7.72,7.72,0,0,0-2.53,2.88l-.84.58a8.94,8.94,0,0,0-2.34,2.33,9.86,9.86,0,0,0-1,2.51,24.29,24.29,0,0,0-1.2,8.24,12.3,12.3,0,0,0,3,7.64c1.17,1.26,2.66,2.19,3.84,3.45,2.42,2.59,2.87,6.21,4.94,8.95,2.19,2.9,6.19,4.81,9.7,5.36a16.19,16.19,0,0,0,12.06-3,7.37,7.37,0,0,0,2-2.15c1.22-2.11.7-4.75,1.16-7.15C1220.5,200.14,1224.78,196.38,1224,191.88Z" transform="translate(-13 -21.99)"/><path class="cls-7" d="M1164.22,363.3s6.72,24.21-1.79,27.8-5.83-26.9-5.83-26.9Z" transform="translate(-13 -21.99)"/><path class="cls-10" d="M1172.28,308.36s-2.94,43.65-2.48,54.17c-2.42-.7-3.93-1.51-3.79-2.37.45-2.69,5.38-53.79,5.38-58.73s1.8-28.69,1.8-28.69l-12.89-25.35c.21-1.25.33-2,.33-2l6.5,13.67,9.19,2.46Z" transform="translate(-13 -21.99)"/><path class="cls-8" d="M1162.43,242.71l-3.14,2.69s-4,23.76-3.59,29.58-9.41,94.15-1.79,94.15,16.14-1.35,14.79-4.49,2.24-56.28,2.24-56.28l4-46.83Z" transform="translate(-13 -21.99)"/><path class="cls-10" d="M1245,247.53c-3.07,8-10.83,22.25-12,24.47,0-5.74,0-9.79,0-9.79l9.42-19.28,2-1.57S1244.68,243.73,1245,247.53Z" transform="translate(-13 -21.99)"/><path class="cls-10" d="M1245.36,360.61c-1,.21-3.57.63-6.88,1.13-1.72-12.7-6.31-49.21-6-52.64.14-1.7.26-10.07.35-19.29.25,9.06.93,19.37,2.68,25.07C1239.09,326.54,1249.85,359.71,1245.36,360.61Z" transform="translate(-13 -21.99)"/><path class="cls-8" d="M1239.54,239.57l6.72,1.79s4.48,49.76,4.93,58.28,5.83,61,4.93,63.21-14.79,5.38-15.24,3.14-7-52.82-6.62-56.9-1.9-46.21-1.9-46.21Z" transform="translate(-13 -21.99)"/><polyline class="cls-2" points="801.27 246.31 882.73 178.43 964.9 131.98 1046.36 86.96 1127.82 8.36"/><circle class="cls-1" cx="799.13" cy="249.88" r="7.86"/><circle class="cls-1" cx="880.59" cy="182" r="7.86"/><circle class="cls-1" cx="962.76" cy="135.55" r="7.86"/><circle class="cls-1" cx="1044.22" cy="90.53" r="7.86"/><circle class="cls-1" cx="1125.68" cy="11.93" r="7.86"/><circle class="cls-2" cx="801.27" cy="246.31" r="7.86"/><circle class="cls-2" cx="882.73" cy="178.42" r="7.86"/><circle class="cls-2" cx="964.9" cy="131.98" r="7.86"/><circle class="cls-2" cx="1046.36" cy="86.96" r="7.86"/><circle class="cls-2" cx="1127.82" cy="8.36" r="7.86"/><path class="cls-11" d="M67.71,336.53c-11.2,9.17,7.14,89.67,7.14,89.67S78.92,549,87.58,554.58s28-.51,35.66-1.53,1-76.93-10.19-104.95-2.54-68.77-2.54-68.77l60.62,11.72S134.45,422.12,136,428.74s40.76,29,47.89,30.06,20.89-40.75,33.11-69.28-83.55-46.87-83.55-46.87l-13.24-25S78.92,327.36,67.71,336.53Z" transform="translate(-13 -21.99)"/><path class="cls-11" d="M98.14,556.69s-3.7,12.94,0,12.94,10.48,3.7,21,2.47,7.39-14.18,0-16-5.55-16.64-5.55-16.64c-2.46-4.93-14.17,1.23-14.17,1.23Z" transform="translate(-13 -21.99)"/><path class="cls-11" d="M150.63,453.8s-6.35,11.87-2.73,12.65,9.46,5.82,19.95,6.83,10.22-12.3,3.38-15.66-1.91-17.44-1.91-17.44c-1.37-5.33-14.11-1.78-14.11-1.78Z" transform="translate(-13 -21.99)"/><path class="cls-12" d="M74.59,226.24c1,2-3.56,27.51-3.56,27.51l4.07,7.13s23.44-9.17,19.87-10.7-3.06-20.37-3.06-20.37S73.57,224.2,74.59,226.24Z" transform="translate(-13 -21.99)"/><circle class="cls-11" cx="70.41" cy="180.87" r="31.24"/><circle class="cls-11" cx="68.26" cy="151.63" r="12.93"/><path class="cls-11" d="M86.91,179.47c.45,0,.9.07,1.35.07a12.93,12.93,0,0,0,0-25.85,12.21,12.21,0,0,0-1.35.07,12.93,12.93,0,0,1,0,25.71Z" transform="translate(-13 -21.99)"/><circle class="cls-12" cx="71.27" cy="196.1" r="21.4"/><path class="cls-13" d="M53.45,251c-6.62,1.53-17.83,17.83-17.83,17.83l17.83,17.83s12.74,47.89,14.26,49.92c10,13.35,55-16.3,55-16.3S121,305.71,122,298.58c1-6.86-3.82-20.63-3.82-20.63s16.81-7.13,13.25-14.27-25.48-23.43-34.65-17.83-27.51,0-27.51,0A143.86,143.86,0,0,1,53.45,251Z" transform="translate(-13 -21.99)"/><path class="cls-12" d="M183.61,353.6s29,25,36.17,19.87-27.51-22.93-27.51-22.93Z" transform="translate(-13 -21.99)"/><path class="cls-12" d="M53.2,344.94c4.07,4.59,23.43-7.13,21-12.34s-17.9,5.21-17.9,5.21S49.12,340.36,53.2,344.94Z" transform="translate(-13 -21.99)"/><path class="cls-13" d="M53.45,275.91l-21.4,39.74S56.51,336,59.56,336.53s-6.11,13.76-6.11,13.76-27.51-19.36-38.21-29,20.38-52.47,20.38-52.47l9.17-5.61Z" transform="translate(-13 -21.99)"/><path class="cls-13" d="M115.6,274.38l25,38.72s38.2,42.79,43.3,44.83,11.21-7.64,11.21-7.64l-45.85-55.53L131.9,263.68l-6.62-2.54Z" transform="translate(-13 -21.99)"/><ellipse class="cls-11" cx="70.41" cy="170.68" rx="21.54" ry="12.93"/><path d="M143.85,471.54a2.68,2.68,0,0,0-2.67,2.67V565a2.68,2.68,0,0,0,2.67,2.67h309.7a2.68,2.68,0,0,0,2.67-2.67V474.21a2.69,2.69,0,0,0-2.67-2.67Z" transform="translate(-13 -21.99)"/><path class="cls-14" d="M147.86,561H449.54v-82.8H147.86Z" transform="translate(-13 -21.99)"/><path class="cls-6" d="M411.46,543.85a4.41,4.41,0,1,0,0,8.82h17.67a4.41,4.41,0,1,0,0-8.82H411.46Z" transform="translate(-13 -21.99)"/><rect x="216.83" y="513.3" width="203.69" height="1.16"/><circle class="cls-15" cx="174.25" cy="497.63" r="25.69"/><polygon points="217.15 506.82 216.51 505.86 237.67 491.75 252.19 498.71 273.06 485.37 314.6 503.09 347.67 486.84 379.78 499.86 420.13 464.12 420.9 464.99 380.01 501.21 347.71 488.11 314.63 504.37 273.17 486.68 252.27 500.04 237.77 493.08 217.15 506.82"/><path class="cls-15" d="M233.6,544.45a3.78,3.78,0,0,0,0,7.55h39.48a3.78,3.78,0,0,0,0-7.55Z" transform="translate(-13 -21.99)"/><path class="cls-14" d="M197.06,508.13h4l-8.35,8.26a7.79,7.79,0,0,1-10.95,0l-8.36-8.26h4l6.34,6.28a5,5,0,0,0,6.94,0Zm-19.67,23h-4l8.41-8.31a7.79,7.79,0,0,1,10.95,0l8.4,8.31h-4l-6.4-6.33a5,5,0,0,0-6.94,0Z" transform="translate(-13 -21.99)"/><path d="M184.17,180.61a2.67,2.67,0,0,0-2.66,2.67V274.1a2.67,2.67,0,0,0,2.66,2.67H493.88a2.69,2.69,0,0,0,2.67-2.67V183.28a2.68,2.68,0,0,0-2.67-2.67Z" transform="translate(-13 -21.99)"/><path class="cls-14" d="M188.18,270.09H489.87v-82.8H188.18Z" transform="translate(-13 -21.99)"/><path class="cls-15" d="M451.79,252.91a4.42,4.42,0,0,0,0,8.83h17.66a4.42,4.42,0,0,0,0-8.83Z" transform="translate(-13 -21.99)"/><rect x="257.16" y="222.37" width="203.69" height="1.16"/><circle class="cls-15" cx="214.58" cy="206.7" r="25.69"/><polygon points="257.48 215.89 256.84 214.93 278 200.81 292.52 207.78 313.39 194.44 313.68 194.56 354.92 212.16 388 195.91 420.11 208.93 460.46 173.19 461.23 174.06 420.34 210.28 388.04 197.18 354.96 213.44 313.5 195.75 292.6 209.11 278.1 202.15 257.48 215.89"/><path class="cls-13" d="M273.93,253.52a3.78,3.78,0,0,0,0,7.55h39.46a3.78,3.78,0,0,0,0-7.55Z" transform="translate(-13 -21.99)"/><path class="cls-14" d="M237.92,225.69c.48-3.21-2-4.94-5.32-6.1l1.09-4.35-2.65-.66L230,218.82c-.7-.18-1.41-.34-2.12-.5l1.06-4.27-2.65-.66-1.08,4.35-1.7-.39v0l-3.66-.91-.71,2.83s2,.45,1.93.48a1.41,1.41,0,0,1,1.23,1.54l-1.23,5,.27.09-.28-.07-1.73,6.95a1,1,0,0,1-1.21.63h0s-1.92-.48-1.92-.48l-1.32,3,3.45.86,1.89.48-1.1,4.41,2.65.66,1.09-4.36c.72.2,1.42.38,2.11.55l-1.08,4.34,2.65.66,1.1-4.4c4.52.86,7.92.51,9.35-3.57,1.15-3.3-.06-5.2-2.44-6.44a4.24,4.24,0,0,0,3.39-3.89Zm-6.06,8.49c-.82,3.3-6.36,1.52-8.16,1.07l1.46-5.84c1.79.45,7.56,1.34,6.7,4.77Zm.82-8.54c-.75,3-5.36,1.48-6.86,1.1l1.32-5.29c1.5.37,6.32,1.07,5.54,4.19Z" transform="translate(-13 -21.99)"/><path d="M306,326.08a2.66,2.66,0,0,0-2.66,2.66v90.83a2.66,2.66,0,0,0,2.66,2.66H615.73a2.66,2.66,0,0,0,2.66-2.66V328.74a2.66,2.66,0,0,0-2.66-2.66Z" transform="translate(-13 -21.99)"/><path class="cls-14" d="M310,415.56H611.72V332.75H310Z" transform="translate(-13 -21.99)"/><path class="cls-15" d="M573.64,398.38a4.41,4.41,0,1,0,0,8.82h17.65a4.41,4.41,0,1,0,0-8.82H573.64Z" transform="translate(-13 -21.99)"/><rect x="379" y="367.84" width="203.69" height="1.16"/><circle class="cls-15" cx="349.43" cy="374.16" r="25.69" transform="translate(-88.87 637.15) rotate(-80.78)"/><polygon class="cls-9" points="379.33 361.36 378.68 360.39 399.85 346.28 414.36 353.25 435.24 339.91 435.52 340.03 476.77 357.62 509.84 341.38 541.96 354.4 582.31 318.66 583.08 319.53 542.19 355.74 509.89 342.65 476.8 358.9 435.35 341.22 414.44 354.57 399.94 347.61 379.33 361.36"/><path class="cls-13" d="M395.78,399a3.77,3.77,0,0,0,0,7.54h39.46a3.77,3.77,0,0,0,0-7.54Z" transform="translate(-13 -21.99)"/><polygon class="cls-14" points="336.42 369.1 346.82 354.45 336.42 360.6 336.42 360.6 326.03 354.45 336.42 369.1 336.42 369.1 336.42 369.1 336.42 369.1 336.42 369.1"/><polygon class="cls-14" points="336.42 358.63 336.42 358.63 336.42 358.63 336.42 358.63 346.82 352.48 336.42 335.24 336.42 335.24 336.42 335.24 336.42 335.24 336.42 335.24 326.03 352.48 336.42 358.63"/><ellipse class="cls-9" cx="1208.98" cy="921.73" rx="103.02" ry="13.37"/><rect class="cls-1" x="513.07" y="362.79" width="311.01" height="194.03"/><rect class="cls-16" x="532.68" y="343.89" width="311.01" height="194.03"/><path class="cls-9" d="M749,509.94a67.05,67.05,0,0,0-47.41-114.46v67Z" transform="translate(-13 -21.99)"/><path class="cls-6" d="M701.55,395.48a67.06,67.06,0,0,0-32.08,125.95l32.08-58.9Z" transform="translate(-13 -21.99)"/><path class="cls-8" d="M749,509.94l-47.41-47.41-32.08,58.9A67.09,67.09,0,0,0,749,509.94Z" transform="translate(-13 -21.99)"/><rect class="cls-6" x="544.45" y="497.61" width="12.84" height="12.84"/><rect class="cls-9" x="563" y="497.61" width="12.84" height="12.84"/><rect class="cls-8" x="581.55" y="497.61" width="12.84" height="12.84"/><rect class="cls-9" x="766.3" y="500.46" width="52.79" height="2.14"/><rect class="cls-9" x="766.3" y="506.88" width="52.79" height="2.14"/><rect class="cls-9" x="766.3" y="513.3" width="52.79" height="2.14"/><rect class="cls-1" x="610.79" y="633.14" width="176.91" height="194.03"/><rect class="cls-16" x="628.63" y="614.6" width="176.91" height="194.03"/><rect class="cls-6" x="637.9" y="786.73" width="9.54" height="9.54"/><rect class="cls-9" x="651.68" y="786.73" width="9.54" height="9.54"/><rect class="cls-8" x="665.46" y="786.73" width="9.54" height="9.54"/><rect class="cls-9" x="744.9" y="790.88" width="37.09" height="1.5"/><rect class="cls-9" x="744.9" y="795.39" width="37.09" height="1.5"/><rect class="cls-9" x="744.9" y="799.9" width="37.09" height="1.5"/><path class="cls-9" d="M730.08,670.82v15.7a47.08,47.08,0,0,1,33.29,80.37L774.47,778a62.78,62.78,0,0,0-44.39-107.16Z" transform="translate(-13 -21.99)"/><path class="cls-8" d="M774.47,778l-11.1-11.09a47.06,47.06,0,0,1-61.77,4.19l-9.5,12.49A62.76,62.76,0,0,0,774.47,778Z" transform="translate(-13 -21.99)"/><path class="cls-6" d="M683,733.6a47.08,47.08,0,0,1,47.08-47.08v-15.7a62.77,62.77,0,0,0-38,112.75l9.5-12.49A47,47,0,0,1,683,733.6Z" transform="translate(-13 -21.99)"/><path class="cls-12" d="M1190.63,465.74s-2.91,21.62,4.57,24.11,5.4,21.62,5.4,21.62l-22.45,17-20,1.66-5-25.77,2.91-6.66s11.23-13.3,3.33-27S1190.63,465.74,1190.63,465.74Z" transform="translate(-13 -21.99)"/><path class="cls-10" d="M1190.63,465.74s-2.91,21.62,4.57,24.11,5.4,21.62,5.4,21.62l-22.45,17-20,1.66-5-25.77,2.91-6.66s11.23-13.3,3.33-27S1190.63,465.74,1190.63,465.74Z" transform="translate(-13 -21.99)"/><path class="cls-8" d="M1169.84,634.13l-26.2,61.54s-20.37-11.64-32.43-10.39-27-13.31-27-13.31l15-72.35L1127,522.7l38.67,24.53Z" transform="translate(-13 -21.99)"/><path class="cls-10" d="M1169.84,634.13l-26.2,61.54s-20.37-11.64-32.43-10.39-27-13.31-27-13.31l15-72.35L1127,522.7l38.67,24.53Z" transform="translate(-13 -21.99)"/><polygon class="cls-8" points="1198 873.68 1198 893.64 1179.29 893.64 1182.2 870.36 1198 873.68"/><polygon class="cls-8" points="1246.65 839.17 1260.37 847.49 1250.39 870.36 1240 869.11 1230.02 854.97 1246.65 839.17"/><path class="cls-11" d="M1214.74,628.31l24.53,57.8s-8.73,64-8.31,69.44.83,7.48-1.25,12.06-2.91,7.48-1.66,12.89,1.66,7.48.83,9.56-6.65,87.73-9.56,93.55,1.66,15.39-1.25,16.22-24.53-1.25-25.78-6.24,4.16-17.05,1.25-20.79.41-138.46-3.75-147.61-49.89-17.46-49.89-17.46-4.16-26.61-1.66-30.77,5.82-30.35,5.82-30.35Z" transform="translate(-13 -21.99)"/><path class="cls-11" d="M1190.63,912.3s11.64-13.72,21.62,0c0,0,.83,16.22,7.9,19.55s3.74,16.63-6.24,17-22.87,2.08-23.28-3.32,1.66-8.73-2.08-10.4,0-11.22,0-11.22Z" transform="translate(-13 -21.99)"/><path class="cls-11" d="M1191.87,713.55s-.41,29.94-3.32,34.1-4.58,6.65-2.91,11.22,4.15,12.89,2.91,14.56,1.24,10.39,1.24,10.39,32,15.39,47,47.4c0,0,15.38,25.37,20,25.78s10-2.91,7.48,6.65-12.06,22-19.12,20.79-12.48-13.3-12.48-13.3-55.3-56.13-61.12-57.8-22.45-15-25.36-23.28-9.15-77.76-6.24-82.33,13.72-10.81,13.72-10.81Z" transform="translate(-13 -21.99)"/><path class="cls-11" d="M1263.81,859.5s25.78.83,26.19,7.07-10.81,43.24-9.15,52-12.89,28.69-22.45,24.53-2.08-25.78-2.08-25.78-9.56-29.52-7.9-29.93,18.3-5.41,17.47-10.4S1263.81,859.5,1263.81,859.5Z" transform="translate(-13 -21.99)"/><circle class="cls-12" cx="1158.29" cy="440.22" r="25.78"/><path class="cls-6" d="M1197.28,501.91s-14.14,15-24.53,12.47S1157,494,1157,494l-18.71-3.33s-13.31,59.05-13.31,64.87,13.31,68.61,13.31,79.83-10.82,17.88,5.82,17.47,8.73-5.83,32.84-6.24,27.86,5,32.85-3.74a69.83,69.83,0,0,1,12.48-15.39l-8.74-30.77-1.24-86.9s-10.66-20.79-15.52-19.13C1196.73,490.68,1199.36,499.83,1197.28,501.91Z" transform="translate(-13 -21.99)"/><path class="cls-8" d="M1192.16,487s22.17,2.43,28.4,7,23.7,7.9,23.29,11.23S1223.47,556,1223.47,556s-9.14,37.43-1.24,46.16,37.42,104,32.43,111.85-20.79-24.12-20.79-24.12-21.21-68.61-32.85-80.25-12.47-74.43-12.47-77.34S1192.16,487,1192.16,487Z" transform="translate(-13 -21.99)"/><path class="cls-8" d="M1159.73,491.83s-27.32-10.29-36.88-6.14-15.38,5-15.38,5l-3.33,40.75s-1.25,58.63-12.06,72.77-17.88,73.18-16.21,79S1073,699,1080,696.5s26.61-59.87,26.61-59.87,0-32.85,11.65-42,30.77-47,31.6-56.13,8.73-34.51,8.73-34.51Z" transform="translate(-13 -21.99)"/><path class="cls-12" d="M1253.41,622.91s-12.47,23.28-14.14,27.44-13.3,32.43-29.93,26.2S1225.55,640,1225.55,640l7.49-25.37S1252.58,610.43,1253.41,622.91Z" transform="translate(-13 -21.99)"/><path class="cls-8" d="M1111.62,490.68h-4.15a9.58,9.58,0,0,0-9.15-1.24c-5,2.08-16.63-.84-16.63.41s-12.89-3.74-18.3-1.25-25,3.33-25,3.33-7.9,20-2.49,23.7,13.3.83,17,3.74,10.81-.41,13.3,3.33,11.64,10.4,13.72,6.24-2.08-7.9,6.66-3.33,22.45,4.57,22.45,4.57Z" transform="translate(-13 -21.99)"/><path class="cls-11" d="M1173.62,443.15c-3.49-.8-7.11.09-10.65.67s-7.43.77-10.41-1.2c-2.21-1.46-3.57-3.87-4.84-6.18a7.1,7.1,0,0,1-1-2.73c-.15-1.71.94-3.28,2.09-4.55,5.38-5.91,13.24-9.14,21.16-10.17a36.5,36.5,0,0,1,19.32,2.36,25.33,25.33,0,0,1,13.55,13.59,38.42,38.42,0,0,1,2,9.71A29.25,29.25,0,0,1,1205,452a31.66,31.66,0,0,1-1.43,5.32l-3.91,11.83a7.93,7.93,0,0,1-1.54,3,2.67,2.67,0,0,1-3.13.68,9.59,9.59,0,0,0,.15-3.92,3.32,3.32,0,0,0-2.62-2.63c-1.44-.16-2.67,1-4,1.44a5,5,0,0,1-6.19-3.35c0-.13-.07-.26-.1-.39-.22-1.35.15-2.8-.36-4.07-.61-1.49-2.2-2.26-3.39-3.33a7.79,7.79,0,0,1-2.14-8.11c.32-1,1.22-1.43,1-2.56C1177.06,444.48,1174.87,443.45,1173.62,443.15Z" transform="translate(-13 -21.99)"/><rect class="cls-1" x="874.73" y="511.88" width="176.91" height="194.03"/><rect class="cls-16" x="892.56" y="493.33" width="176.91" height="194.03"/><polyline class="cls-16" points="909.68 505.46 909.68 653.83 1053.06 653.83"/><rect class="cls-8" x="917.53" y="601.76" width="32.1" height="51.36"/><rect class="cls-9" x="963.89" y="566.8" width="32.1" height="86.31"/><rect class="cls-6" x="1010.26" y="526.14" width="32.1" height="126.97"/><rect class="cls-6" x="907.54" y="665.47" width="9.54" height="9.54"/><rect class="cls-9" x="921.32" y="665.47" width="9.54" height="9.54"/><rect class="cls-8" x="935.1" y="665.47" width="9.54" height="9.54"/><rect class="cls-9" x="1014.54" y="669.61" width="37.09" height="1.5"/><rect class="cls-9" x="1014.54" y="674.12" width="37.09" height="1.5"/><rect class="cls-9" x="1014.54" y="678.63" width="37.09" height="1.5"/><path class="cls-12" d="M1042.74,491.91a13.24,13.24,0,0,1,12.39,14.75c-.74,6.83-3.48,15.34-12.11,18.6-15.39,5.82-14.56-27-11.65-28.27C1033.32,496.16,1036.36,491.63,1042.74,491.91Z" transform="translate(-13 -21.99)"/><path class="cls-8" d="M1239.27,503l4.58,2.22s10,20.37,10.39,23.28,7.07,13.72,4.58,16.63-6.24,10.4-3.75,13.31,8.32,14.55,8.32,18.71-6.24,15.38-2.08,16.63,2.91,17.47,2.08,18.71-11.64,21.62-11.64,21.62-2.08-23.28-22.45-13.72c0,0-1.67-11.64,0-12.47s5.82-5.82,2.49-6.65-7.9-10.81-7.07-12.06,2.91-2.91.83-4.16-3.74-8.32-3.32-9.56-4.58-7.07-4.58-7.07Z" transform="translate(-13 -21.99)"/><path class="cls-17" d="M223.08,503.93c-19.92-.74-40.72-1.25-58.73,7.28s-31.93,29.23-25.89,48.24c2,6.2,5.81,11.61,9,17.25,16.19,28.23,16.94,64.71,1.93,93.58-11.55,22.23-31.13,39.14-45.22,59.85S82.1,779.54,96,800.4c9.49,14.29,27.11,21.24,44.18,22.92s34.24-1,51.38-1.65a221.3,221.3,0,0,1,97.17,18.38c42.11,18.46,78.38,50,122.72,62.23,5.32,1.46,10.89,2.64,16.33,1.65,9.66-1.76,16.68-9.74,24.23-16,24.13-20,57.54-23.71,88.86-24.63s63.94-.22,92.25-13.66c24.72-11.74,43.74-33.59,55.58-58.26s17-52.09,18.91-79.39c1.14-16.25,1.1-33-4.71-48.24-6.54-17.11-19.8-30.73-33.71-42.63-14.53-12.45-30.37-23.72-48.31-30.44-21.43-8-44.69-9.17-67.51-11.07a927.31,927.31,0,0,1-138.86-22.3c-43.34-10.36-90.92-21.68-130.39-42.78C264.28,503.89,245.41,504.73,223.08,503.93Z" transform="translate(-13 -21.99)"/><g class="cls-18"><path class="cls-6" d="M497.8,864.36s2-28.43,18-43.93a43.22,43.22,0,0,0,12.76-24.15,74.39,74.39,0,0,0,.86-13.25" transform="translate(-13 -21.99)"/><path class="cls-6" d="M539.47,773.2c-1.18,3.14-10.26,10.12-10.26,10.12S526.92,772.1,528.1,769a6.07,6.07,0,0,1,11.37,4.24Z" transform="translate(-13 -21.99)"/><path class="cls-6" d="M542.37,794.1c-2.7,2-14.11,2.91-14.11,2.91s4.18-10.66,6.88-12.66a6.07,6.07,0,0,1,7.23,9.74Z" transform="translate(-13 -21.99)"/><path class="cls-6" d="M530.85,823.65c-3.33.36-13.65-4.59-13.65-4.59s9-7.09,12.33-7.45a6.07,6.07,0,0,1,1.32,12Z" transform="translate(-13 -21.99)"/><path class="cls-6" d="M517.11,844.05c-3.22.92-14.23-2.23-14.23-2.23s7.66-8.51,10.88-9.44A6.07,6.07,0,0,1,517.44,844l-.33.1Z" transform="translate(-13 -21.99)"/><path class="cls-6" d="M516.1,793.16c1.43,3,11.07,9.21,11.07,9.21s1.33-11.37-.11-14.4a6.07,6.07,0,0,0-11,5.19Z" transform="translate(-13 -21.99)"/><path class="cls-6" d="M500.33,817.22c2.29,2.46,13.32,5.48,13.32,5.48s-2.14-11.25-4.41-13.72a6.07,6.07,0,0,0-8.91,8.24Z" transform="translate(-13 -21.99)"/><path class="cls-6" d="M488.21,842.71c1.82,2.81,12.2,7.65,12.2,7.65s-.2-11.46-2-14.26a6.07,6.07,0,0,0-10.17,6.61Z" transform="translate(-13 -21.99)"/><path class="cls-6" d="M539.47,773.2c-1.18,3.14-10.26,10.12-10.26,10.12S526.92,772.1,528.1,769a6.07,6.07,0,0,1,11.37,4.24Z" transform="translate(-13 -21.99)"/><path class="cls-6" d="M542.37,794.1c-2.7,2-14.11,2.91-14.11,2.91s4.18-10.66,6.88-12.66a6.07,6.07,0,0,1,7.23,9.74Z" transform="translate(-13 -21.99)"/><path class="cls-6" d="M530.85,823.65c-3.33.36-13.65-4.59-13.65-4.59s9-7.09,12.33-7.45a6.07,6.07,0,0,1,1.32,12Z" transform="translate(-13 -21.99)"/><path class="cls-6" d="M517.11,844.05c-3.22.92-14.23-2.23-14.23-2.23s7.66-8.51,10.88-9.44A6.07,6.07,0,0,1,517.44,844l-.33.1Z" transform="translate(-13 -21.99)"/><path class="cls-6" d="M516.1,793.16c1.43,3,11.07,9.21,11.07,9.21s1.33-11.37-.11-14.4a6.07,6.07,0,0,0-11,5.19Z" transform="translate(-13 -21.99)"/><path class="cls-6" d="M500.33,817.22c2.29,2.46,13.32,5.48,13.32,5.48s-2.14-11.25-4.41-13.72a6.07,6.07,0,0,0-8.91,8.24Z" transform="translate(-13 -21.99)"/><path class="cls-6" d="M488.21,842.71c1.82,2.81,12.2,7.65,12.2,7.65s-.2-11.46-2-14.26a6.07,6.07,0,0,0-10.17,6.61Z" transform="translate(-13 -21.99)"/></g><g class="cls-18"><path class="cls-6" d="M503.42,756.76s2-28.42,18-43.92a43.24,43.24,0,0,0,12.75-24.15,71.8,71.8,0,0,0,.86-13.26" transform="translate(-13 -21.99)"/><path class="cls-6" d="M545.08,665.61c-1.14,3.13-10.25,10.11-10.25,10.11s-2.29-11.23-1.11-14.36a6.06,6.06,0,1,1,11.36,4.25Z" transform="translate(-13 -21.99)"/><path class="cls-6" d="M548,686.5c-2.69,2-14.11,2.91-14.11,2.91s4.18-10.65,6.88-12.65a6.06,6.06,0,1,1,7.49,9.54Z" transform="translate(-13 -21.99)"/><path class="cls-6" d="M536.47,716.05c-3.33.37-13.65-4.58-13.65-4.58s9-7.09,12.33-7.45a6.07,6.07,0,1,1,1.54,12l-.22,0Z" transform="translate(-13 -21.99)"/><path class="cls-6" d="M522.72,736.45c-3.22.92-14.23-2.23-14.23-2.23s7.67-8.51,10.89-9.44a6.07,6.07,0,0,1,3.34,11.67Z" transform="translate(-13 -21.99)"/><path class="cls-6" d="M521.72,685.56c1.43,3,11.07,9.22,11.07,9.22s1.33-11.38-.11-14.41a6.06,6.06,0,0,0-11.06,5,2,2,0,0,0,.1.21Z" transform="translate(-13 -21.99)"/><path class="cls-6" d="M505.94,709.62c2.29,2.47,13.33,5.48,13.33,5.48s-2.14-11.25-4.42-13.71a6.07,6.07,0,0,0-8.91,8.23Z" transform="translate(-13 -21.99)"/><path class="cls-6" d="M493.82,735.11c1.83,2.81,12.21,7.65,12.21,7.65s-.21-11.46-2-14.26a6.07,6.07,0,1,0-10.35,6.33l.18.28Z" transform="translate(-13 -21.99)"/><path class="cls-6" d="M545.08,665.61c-1.14,3.13-10.25,10.11-10.25,10.11s-2.29-11.23-1.11-14.36a6.06,6.06,0,1,1,11.36,4.25Z" transform="translate(-13 -21.99)"/><path class="cls-6" d="M548,686.5c-2.69,2-14.11,2.91-14.11,2.91s4.18-10.65,6.88-12.65a6.06,6.06,0,1,1,7.49,9.54Z" transform="translate(-13 -21.99)"/><path class="cls-6" d="M536.47,716.05c-3.33.37-13.65-4.58-13.65-4.58s9-7.09,12.33-7.45a6.07,6.07,0,1,1,1.54,12l-.22,0Z" transform="translate(-13 -21.99)"/><path class="cls-6" d="M522.72,736.45c-3.22.92-14.23-2.23-14.23-2.23s7.67-8.51,10.89-9.44a6.07,6.07,0,0,1,3.34,11.67Z" transform="translate(-13 -21.99)"/><path class="cls-6" d="M521.72,685.56c1.43,3,11.07,9.22,11.07,9.22s1.33-11.38-.11-14.41a6.06,6.06,0,0,0-11.06,5,2,2,0,0,0,.1.21Z" transform="translate(-13 -21.99)"/><path class="cls-6" d="M505.94,709.62c2.29,2.47,13.33,5.48,13.33,5.48s-2.14-11.25-4.42-13.71a6.07,6.07,0,0,0-8.91,8.23Z" transform="translate(-13 -21.99)"/><path class="cls-6" d="M493.82,735.11c1.83,2.81,12.21,7.65,12.21,7.65s-.21-11.46-2-14.26a6.07,6.07,0,1,0-10.35,6.33l.18.28Z" transform="translate(-13 -21.99)"/></g><g class="cls-18"><path class="cls-6" d="M199.46,794S175,779.42,168.32,758.17a43.18,43.18,0,0,0-15.84-22.25A71.47,71.47,0,0,0,141,729.2" transform="translate(-13 -21.99)"/><path class="cls-6" d="M136.75,715.81c2.3,2.46,4.43,13.71,4.43,13.71s-11.05-3-13.32-5.46a6.07,6.07,0,0,1,8.89-8.25Z" transform="translate(-13 -21.99)"/><path class="cls-6" d="M156.72,722.65c.58,3.3-3.73,13.91-3.73,13.91s-7.65-8.53-8.22-11.83a6.07,6.07,0,1,1,11.9-2.38C156.69,722.45,156.71,722.55,156.72,722.65Z" transform="translate(-13 -21.99)"/><path class="cls-6" d="M178,746.18c-1.15,3.14-10.25,10.13-10.25,10.13s-2.3-11.23-1.12-14.36a6.07,6.07,0,1,1,11.49,3.92l-.12.31Z" transform="translate(-13 -21.99)"/><path class="cls-6" d="M190,767.63c-.61,3.3-8.38,11.74-8.38,11.74s-4.16-10.67-3.53-14A6.06,6.06,0,1,1,190,767.66h0Z" transform="translate(-13 -21.99)"/><path class="cls-6" d="M144.08,745.66c3.35.08,13.21-5.73,13.21-5.73s-9.57-6.31-12.92-6.39a6.07,6.07,0,0,0-.29,12.13Z" transform="translate(-13 -21.99)"/><path class="cls-6" d="M158.48,770.57c3.22-.93,10.89-9.45,10.89-9.45s-11-3.14-14.23-2.21a6.07,6.07,0,0,0,3.35,11.66Z" transform="translate(-13 -21.99)"/><path class="cls-6" d="M175.8,792.85c3.33-.37,12.32-7.45,12.32-7.45s-10.31-5-13.65-4.58a6.06,6.06,0,0,0,.66,12.1A4.9,4.9,0,0,0,175.8,792.85Z" transform="translate(-13 -21.99)"/><path class="cls-6" d="M136.75,715.81c2.3,2.46,4.43,13.71,4.43,13.71s-11.05-3-13.32-5.46a6.07,6.07,0,0,1,8.89-8.25Z" transform="translate(-13 -21.99)"/><path class="cls-6" d="M156.72,722.65c.58,3.3-3.73,13.91-3.73,13.91s-7.65-8.53-8.22-11.83a6.07,6.07,0,1,1,11.9-2.38C156.69,722.45,156.71,722.55,156.72,722.65Z" transform="translate(-13 -21.99)"/><path class="cls-6" d="M178,746.18c-1.15,3.14-10.25,10.13-10.25,10.13s-2.3-11.23-1.12-14.36a6.07,6.07,0,1,1,11.49,3.92l-.12.31Z" transform="translate(-13 -21.99)"/><path class="cls-6" d="M190,767.63c-.61,3.3-8.38,11.74-8.38,11.74s-4.16-10.67-3.53-14A6.06,6.06,0,1,1,190,767.66h0Z" transform="translate(-13 -21.99)"/><path class="cls-6" d="M144.08,745.66c3.35.08,13.21-5.73,13.21-5.73s-9.57-6.31-12.92-6.39a6.07,6.07,0,0,0-.29,12.13Z" transform="translate(-13 -21.99)"/><path class="cls-6" d="M158.48,770.57c3.22-.93,10.89-9.45,10.89-9.45s-11-3.14-14.23-2.21a6.07,6.07,0,0,0,3.35,11.66Z" transform="translate(-13 -21.99)"/><path class="cls-6" d="M175.8,792.85c3.33-.37,12.32-7.45,12.32-7.45s-10.31-5-13.65-4.58a6.06,6.06,0,0,0,.66,12.1A4.9,4.9,0,0,0,175.8,792.85Z" transform="translate(-13 -21.99)"/></g><path class="cls-17" d="M499.44,965.59c16.45,7.16,36.52,2.8,55.19,3.31,2.55.07,5.26.28,7.3,1.52s3.06,3.23,4.47,5c5.23,6.39,16,8.44,25.32,7.36s17.95-4.67,26.8-7.4c15.28-4.72,32.74-6.88,47.82-1.72a9.84,9.84,0,0,0,4.32.82c3.3-.41,4.29-3.84,6.6-5.79,4.17-3.54,13.23-2.58,15.07-7.24,1.07-2.72-1.4-5.52-4.09-7.38-10.32-7.13-25-8.3-38.52-7.2S623,951,609.43,951c-16.89,0-33.2-4.65-49.92-6.56-11.58-1.32-24.22-1.15-35.08,2.73C512.66,951.33,510.07,960.77,499.44,965.59Z" transform="translate(-13 -21.99)"/><path class="cls-17" d="M188.12,943.64c28.08,8.09,62.34,3.16,94.2,3.74,4.36.08,9,.31,12.48,1.72s5.22,3.66,7.62,5.6c8.93,7.21,27.22,9.53,43.21,8.31s30.66-5.28,45.75-8.36c26.08-5.34,55.9-7.77,81.63-1.95a24.2,24.2,0,0,0,7.38.93c5.63-.47,7.31-4.34,11.26-6.55,7.12-4,22.59-2.91,25.72-8.17,1.83-3.08-2.39-6.24-7-8.34-17.58-8.05-42.74-9.38-65.75-8.14s-45.64,4.66-68.76,4.68c-28.82,0-56.67-5.25-85.21-7.41-19.77-1.49-41.34-1.31-59.88,3.09C210.7,927.54,206.27,938.22,188.12,943.64Z" transform="translate(-13 -21.99)"/><path class="cls-17" d="M113,963.46c8,4.82,17.76,1.89,26.85,2.22a5.76,5.76,0,0,1,3.56,1,12.08,12.08,0,0,1,2.17,3.35c2.54,4.3,7.76,5.69,12.31,5s8.74-3.15,13-5c7.45-3.18,15.94-4.63,23.27-1.15a3.65,3.65,0,0,0,2.11.57c1.6-.28,2.08-2.59,3.21-3.91,2-2.38,6.44-1.72,7.32-4.88.52-1.84-.68-3.72-2-5-5-4.8-12.19-5.59-18.75-4.85s-13,2.74-19.6,2.74c-8.21,0-16.15-3.13-24.28-4.42-5.64-.9-11.79-.78-17.07,1.84C119.4,953.85,118.14,960.22,113,963.46Z" transform="translate(-13 -21.99)"/><path class="cls-19" d="M487.26,524H221a24.39,24.39,0,0,0-24.42,24.34h0V917.2A24.38,24.38,0,0,0,221,941.53H487.26a24.38,24.38,0,0,0,24.42-24.34h0V548.35A24.38,24.38,0,0,0,487.27,524Z" transform="translate(-13 -21.99)"/><rect class="cls-20" x="187.37" y="507.02" width="307.53" height="408.79" rx="11.46" ry="11.46"/><rect class="cls-21" x="203" y="545.68" width="276.28" height="331.46"/><circle class="cls-21" cx="339.89" cy="525.77" r="3.75"/><circle class="cls-21" cx="339.89" cy="895.81" r="11.25"/><g class="cls-22"><rect class="cls-6" x="203" y="545.68" width="276.28" height="16.52"/></g><circle class="cls-21" cx="211.64" cy="553.95" r="3.52"/><circle class="cls-21" cx="220.62" cy="553.95" r="3.52"/><circle class="cls-21" cx="229.59" cy="553.95" r="3.52"/><rect class="cls-23" x="211.25" y="643.12" width="257.28" height="0.86"/><rect class="cls-23" x="211.25" y="663.08" width="257.28" height="0.86"/><rect class="cls-23" x="211.25" y="683.04" width="257.28" height="0.86"/><rect class="cls-23" x="211.25" y="703" width="257.28" height="0.86"/><rect class="cls-23" x="211.25" y="722.95" width="257.28" height="0.86"/><g class="cls-22"><polygon class="cls-6" points="468.53 723.81 210.93 723.81 210.93 684.57 234.56 696.21 259.01 699.53 280.46 693.06 306.34 672.99 319.36 665.47 328.88 663.63 337.98 664.12 352.95 671.52 373.31 684.49 389.29 686.54 401.95 682.17 428.8 660.18 442.51 655.3 456.85 657.51 468.53 664.26 468.53 723.81"/></g><path class="cls-6" d="M268.83,721.5c-23.2,0-44.63-14.19-44.9-14.37l.64-1c.33.22,33.33,22.05,61.36,11.11,10.22-4,17.5-10.18,24.54-16.18,7.35-6.26,14.29-12.18,23.76-14.75A35.55,35.55,0,0,1,366,693.49C373.66,699.82,389,710,405.22,707c8.26-1.55,15.22-7.58,22.59-14,14.14-12.25,28.76-24.92,54.05-6.75l-.67.93c-24.55-17.65-38.82-5.28-52.62,6.68-7.5,6.49-14.58,12.61-23.14,14.24-16.68,3.12-32.34-7.25-40.2-13.7a34.41,34.41,0,0,0-30.7-6.91c-9.22,2.5-16,8.33-23.32,14.51-7.11,6.06-14.46,12.32-24.86,16.38A47.85,47.85,0,0,1,268.83,721.5Z" transform="translate(-13 -21.99)"/><circle class="cls-6" cx="335.05" cy="663.58" r="6.38"/><g class="cls-22"><path class="cls-6" d="M431.24,601.17H350.79a1.31,1.31,0,0,0-1.31,1.31h0v54.4a1.31,1.31,0,0,0,2.26.9l13.94-14.87a1.32,1.32,0,0,1,.95-.41h64.61a1.31,1.31,0,0,0,1.3-1.31h0V602.47A1.3,1.3,0,0,0,431.24,601.17Z" transform="translate(-13 -21.99)"/></g><rect class="cls-21" x="355.1" y="589.26" width="45.81" height="5.73"/><rect class="cls-21" x="355.1" y="601.96" width="12.58" height="5.73"/><g class="cls-22"><rect class="cls-6" x="232.98" y="764.82" width="12.58" height="5.73"/></g><g class="cls-22"><rect class="cls-6" x="232.98" y="775.89" width="12.58" height="5.73"/></g><g class="cls-22"><rect class="cls-6" x="232.98" y="786.97" width="12.58" height="5.73"/></g><g class="cls-22"><rect class="cls-6" x="232.98" y="798.05" width="12.58" height="5.73"/></g><g class="cls-22"><rect class="cls-6" x="232.98" y="809.13" width="12.58" height="5.73"/></g><g class="cls-22"><rect class="cls-6" x="232.98" y="820.2" width="12.58" height="5.73"/></g><g class="cls-22"><rect class="cls-6" x="232.98" y="831.28" width="12.58" height="5.73"/></g><g class="cls-22"><rect class="cls-6" x="232.98" y="842.36" width="12.58" height="5.73"/></g><g class="cls-22"><rect class="cls-6" x="256.66" y="848.09" width="12.58" height="5.73"/></g><g class="cls-22"><rect class="cls-6" x="278.82" y="848.09" width="12.58" height="5.73"/></g><g class="cls-22"><rect class="cls-6" x="300.97" y="848.09" width="12.58" height="5.73"/></g><g class="cls-22"><rect class="cls-6" x="323.13" y="848.09" width="12.58" height="5.73"/></g><g class="cls-22"><rect class="cls-6" x="345.28" y="848.09" width="12.58" height="5.73"/></g><g class="cls-22"><rect class="cls-6" x="367.44" y="848.09" width="12.58" height="5.73"/></g><g class="cls-22"><rect class="cls-6" x="389.59" y="848.09" width="12.58" height="5.73"/></g><g class="cls-22"><rect class="cls-6" x="411.75" y="848.09" width="12.58" height="5.73"/></g><g class="cls-22"><rect class="cls-6" x="433.91" y="848.09" width="12.58" height="5.73"/></g><rect class="cls-21" x="381.82" y="601.96" width="19.1" height="5.73"/><rect class="cls-6" x="256.66" y="806.45" width="12.58" height="35.91"/><rect class="cls-6" x="278.82" y="789.83" width="12.58" height="52.53"/><rect class="cls-6" x="300.97" y="775.89" width="12.58" height="66.47"/><rect class="cls-6" x="323.13" y="783.12" width="12.58" height="59.24"/><rect class="cls-6" x="345.28" y="770.55" width="12.58" height="71.81"/><g class="cls-22"><rect class="cls-6" x="367.44" y="798.05" width="12.58" height="44.31"/></g><g class="cls-22"><rect class="cls-6" x="389.59" y="798.05" width="12.58" height="44.31"/></g><g class="cls-22"><rect class="cls-6" x="411.75" y="798.05" width="12.58" height="44.31"/></g><g class="cls-22"><rect class="cls-6" x="433.91" y="798.05" width="12.58" height="44.31"/></g><path class="cls-24" d="M655.72,659.7c-13.62-7.83-18.77-9.77-18.79-9.78l-.28-.2a11.4,11.4,0,0,1-3.44-4.34v-.84c.22-4.15,3.17-7.93,6-11.22l7.16-8.43a8.07,8.07,0,0,0,1.85-2.92,6.73,6.73,0,0,0,.19-1.79v-.73c0-2.1-.1-4.19-.17-6.31-.07-1.82-.54-4.13-2.37-4.51-1-.19-2.2.15-2.71-.67a1.55,1.55,0,0,1-.12-1.08v0a23.2,23.2,0,0,0,.68-4.3,6,6,0,0,0-.29-2.18c-1.06-3-4.71-4.28-7.94-4.85s-6.83-1.07-8.85-3.59a26.73,26.73,0,0,0-1.76-2.42,7,7,0,0,0-3.3-1.63,18.62,18.62,0,0,0-12,1c-1.56.7-3.13,1.64-4.83,1.53s-3.3-1.33-5-1.63c-2.83-.48-5.54,1.6-6.94,4.06a10,10,0,0,0-1.28,4.79V598h0a7,7,0,0,0,1.84,4.89c1.22,1.26,3,2.13,3.55,3.8.2.68.15,1.41.34,2.1a.81.81,0,0,0,.08.25l-.1.12a21.24,21.24,0,0,0-4.49,13.11A21.71,21.71,0,0,0,608,642.82v.65a9.21,9.21,0,0,1-3,7.2l-19.29,7.76s-11.62-1.38-15.82,15.62a28.71,28.71,0,0,0-.72,8.62c.15,2.56-.2,7.08-3.18,12.91-4.77,9.34-3.69,30.79,6.07,32.91,9.2,2,12.81,1.15,13.18,1.07v.37c-.15,4-1.61,38.73-6.93,42.93-1.46,1.15-1.19,1.95,0,2.48,0,0,0,.22,0,.62-.16,2.54-1,12.21-4.53,17.71-4.12,6.36-3.69,43.1-3.69,43.1l-2.77,21.67s1.72,13.38,0,15.72c-1.55,2.08-3.61,51.56-4,62.29h-.18a5.2,5.2,0,0,0-4.17,2.53c-2.29,3.7-10.26,10.54-10.26,10.54-1.72,2.46-8.13,4.81-11.51,5.92a7.31,7.31,0,0,0-1.31.57,6.89,6.89,0,0,0-2.91,3.06,3.37,3.37,0,0,0-.31,2.56c.87,2.12,18.86,3.6,23.41,1.48,3.58-1.67,17.76-3.87,23.65-4.73a4.84,4.84,0,0,0,4.21-4.2,2.77,2.77,0,0,0-.57-2.11h0c-1.15-1.4-1.72-5.21-2-7.69a5.25,5.25,0,0,0,1.33-.79,56.44,56.44,0,0,1,3.24-22.71c4.34-11.46,5.64-32.7,4.59-46.5,0,0,13.22-56.9,23.63-62.21h0c.16.2,5.21,6.69,5.85,26.75.65,20.38,8,33.75,8,33.75s-3.25,34.61,0,47.56l-4.26,20.43c-.31-.27-.51-.47-.51-.47s.13.57.31,1.47l-.09.43.18,0c.48,2.56,1.2,7,.9,9.62-.17,1.49-.57,3.52-.87,5.52-.44,3.15-.57,6.2,1.09,6.88,2.71,1.09,18.64,2.58,21.35-.92a5,5,0,0,0,.79-5.25,5.49,5.49,0,0,0-.79-1.34s-4.23-6.91-3-11.79a3.55,3.55,0,0,0-.5-2.8,142.81,142.81,0,0,1,3.65-22.88c2.71-10.22,8.43-32.61,4.22-47.34h0c-.16-.58-.34-1.15-.54-1.72a63.43,63.43,0,0,1-2.38-24.84,50.71,50.71,0,0,1,0-21.66c2.6-11.89,4.42-23.57,4.42-23.57s1.44-15.7.18-25.34l-.08-.62.68-.15s-3.68-16.35-5-26.75c-.31-2.45-.71-5.57-1.15-8.89a20.59,20.59,0,0,0,3.54-.88c11.66-4,15.33-40.56,15.33-40.56V685.29S669.38,667.56,655.72,659.7ZM568.51,941.65l-.57-.3h0Z" transform="translate(-13 -21.99)"/><path class="cls-25" d="M648.66,870.43c5.07,14.6-.85,38.29-3.6,48.87a148,148,0,0,0-3.6,23.28,49,49,0,0,1-18.62-.43l4.44-21.78c-3.17-12.9,0-47.39,0-47.39s-7.19-13.33-7.82-33.64c-.63-20-5.56-26.45-5.73-26.65h0c-10.16,5.28-23.07,62-23.07,62,1.06,13.75-.21,34.91-4.44,46.33a57.52,57.52,0,0,0-3.17,22.64c-1.48,1.25-3.54,1.46-5.76,1.11-6-1-13.25-6.21-13.25-6.21s2.29-61.77,4-64.1,0-15.66,0-15.66l2.75-21.58s-.42-36.61,3.6-43c3.47-5.49,4.26-15.12,4.42-17.65a5.1,5.1,0,0,1,0-.62l6.12-7.34s59.25-4.44,63.69,0c1.1,1.1,1.77,3.57,2.17,6.7,1.22,9.59-.18,25.25-.18,25.25s-1.78,11.64-4.32,23.49a51.63,51.63,0,0,0,0,21.58A64.46,64.46,0,0,0,648.66,870.43Z" transform="translate(-13 -21.99)"/><path class="cls-26" d="M645,963.2c-2.64,3.49-18.19,2-20.84.93-1.62-.67-1.49-3.71-1.06-6.85.28-2,.69-4,.85-5.5.43-3.81-1.27-11.54-1.27-11.54s3.5,3.71,4.34,0a4,4,0,0,1,3-2.86,7.93,7.93,0,0,1,5.49.34c2.75,1.19,7.34,3.74,6.51,7.18-1.14,4.86,3,11.75,3,11.75a5.19,5.19,0,0,1,.77,1.33A5.08,5.08,0,0,1,645,963.2Z" transform="translate(-13 -21.99)"/><path class="cls-10" d="M645,963.2c-2.64,3.49-18.19,2-20.84.93-1.62-.67-1.49-3.71-1.06-6.85,1.67.78,4.51,1.44,9.25,1a26.35,26.35,0,0,1,3.33-.11,75.54,75.54,0,0,0,10.09-.2A5.07,5.07,0,0,1,645,963.2Z" transform="translate(-13 -21.99)"/><path class="cls-10" d="M590.68,874.66c1.06,13.75-.21,34.91-4.44,46.33a57.34,57.34,0,0,0-3.17,22.64c-1.48,1.25-3.54,1.46-5.76,1.11,1.27-8.94,6.71-47.38,10.22-77.75,4-34.59,22.51-58.4,22.51-58.4l3.7,4.08C603.58,818,590.68,874.66,590.68,874.66Z" transform="translate(-13 -21.99)"/><path class="cls-27" d="M638.61,652.29,636,665l-12.65,21.26-15.6-6.66s-21.2-22.21-7.88-25.39a11.67,11.67,0,0,0,4.42-2,9.08,9.08,0,0,0,3.44-7.65,23.88,23.88,0,0,0-2.17-9.1l27.3-8.6a43.32,43.32,0,0,0-2,11.06c-.21,7.45,2.55,11.09,4.81,12.84A8.31,8.31,0,0,0,638.61,652.29Z" transform="translate(-13 -21.99)"/><path class="cls-10" d="M632.89,626.9a44.2,44.2,0,0,0-2,11.06,19.27,19.27,0,0,1-1.58,1.68,21.58,21.58,0,0,1-21.58,4.93,23.88,23.88,0,0,0-2.17-9.1Z" transform="translate(-13 -21.99)"/><path class="cls-27" d="M636,623.41a21.58,21.58,0,1,1-21.57-21.58h0A21.48,21.48,0,0,1,636,623.24Z" transform="translate(-13 -21.99)"/><path class="cls-10" d="M638.61,652.29,636,665l-12.65,21.26-15.6-6.66s-21.2-22.21-7.88-25.39a11.67,11.67,0,0,0,4.42-2c-2.4,6.62,7.53,20.38,7.53,20.38,1.15,1.72,3.81.63,3.81.63,6.4-1,18.18-19.37,20.1-22.43A8.41,8.41,0,0,0,638.61,652.29Z" transform="translate(-13 -21.99)"/><path class="cls-10" d="M650.82,775.36c-3.75.85-24.54,5.46-32.42,4.31-8.67-1.27-25.54-2.11-25.54-2.11s-10.74.57-14.05-.93a4.07,4.07,0,0,1,0-.63l6.12-7.33s59.24-4.44,63.69,0C649.75,769.75,650.42,772.23,650.82,775.36Z" transform="translate(-13 -21.99)"/><path class="cls-28" d="M611.84,673.23s-11.16-15.47-7-21.48L586,659.48s-11.35-1.37-15.47,15.56a29.26,29.26,0,0,0-.71,8.6c.15,2.55-.19,7.05-3.1,12.87-4.66,9.31-3.6,30.67,5.92,32.79s12.91,1.06,12.91,1.06-1.27,38.72-6.77,43.16,14,3.39,14,3.39,16.87.85,25.54,2.11,33-4.44,33-4.44-3.6-16.29-4.87-26.66-4.23-32.44-4.23-32.44l21.58-29.22s3.81-17.67-9.52-25.5S636,651,636,651s-13.37,21.78-20.35,22.85C615.65,673.87,613,674.93,611.84,673.23Z" transform="translate(-13 -21.99)"/><path class="cls-10" d="M587.09,679.37s-.21,7,1,9.74,5.93,18,5.93,18H583.49s5.73-6.14,5.29-9.1S587.09,679.37,587.09,679.37Z" transform="translate(-13 -21.99)"/><path class="cls-27" d="M618.4,732.05s-23.36-5.72-25.54-10.58-8.19-15.75-8.19-15.75l2.46-3.32,11.37,8.92s13.54,10.79,19.89,11.85S618.4,732.05,618.4,732.05Z" transform="translate(-13 -21.99)"/><path class="cls-29" d="M618.4,732.05s-23.36-5.72-25.54-10.58-8.19-15.75-8.19-15.75l2.46-3.32,11.37,8.92s13.54,10.79,19.89,11.85S618.4,732.05,618.4,732.05Z" transform="translate(-13 -21.99)"/><path class="cls-27" d="M638.61,704.55v12.68h-2a59.32,59.32,0,0,0-28.77,7.44L604,726.79l-1,.58-6.56-14.77,6.14-5.5h.31c1.51.14,8,.68,10.75-.25s5.85-3.7,13.55-1.71c3.79,1,7,5.22,10.71,3.89Z" transform="translate(-13 -21.99)"/><path class="cls-10" d="M659,681.49l4.23,4.75v11.54s-3.59,36.39-15,40.41-31.82-2.33-31.82-2.33-5.27-14-2.8-14.81,21.77-5.94,21.77-5.94-.27-21.35,4-27.7c0,0-2.75-19.88,6.77-20.31S659,681.49,659,681.49Z" transform="translate(-13 -21.99)"/><path class="cls-28" d="M659.66,681.49l4.23,4.75v11.54s-3.59,36.39-15,40.41S617,735.86,617,735.86s-5.27-14-2.8-14.81S636,715.11,636,715.11s-.27-21.35,4-27.7c0,0-2.75-19.88,6.77-20.31S659.66,681.49,659.66,681.49Z" transform="translate(-13 -21.99)"/><path class="cls-10" d="M630.1,632.58a8.31,8.31,0,0,0-.48-4.12,3.19,3.19,0,0,0-3.36-1.94c-1.81.43-2.59,2.78-4.36,3.35a3.44,3.44,0,0,1-3.84-2,10.1,10.1,0,0,1-.74-4.59V618c0-1.92-.06-4-1.25-5.51-1.47-1.89-4.94-2.7-7.25-2.63a6.14,6.14,0,0,0-4.15,1.67,5.34,5.34,0,0,1-4.36,1.55,3.77,3.77,0,0,1-3-2.62v-.07a21.58,21.58,0,1,1,34.41,26,22.17,22.17,0,0,1-2.33,2.61A56.27,56.27,0,0,0,630.1,632.58Z" transform="translate(-13 -21.99)"/><path class="cls-30" d="M600.3,612.43a3.8,3.8,0,0,1-3-2.63c-.17-.69-.13-1.41-.33-2.09-.49-1.67-2.29-2.53-3.44-3.79-2.38-2.53-2.23-6.69-.53-9.74,1.36-2.46,4-4.52,6.76-4,1.72.3,3.19,1.52,4.93,1.63s3.19-.83,4.72-1.53a17.75,17.75,0,0,1,11.69-1,6.8,6.8,0,0,1,3.22,1.62,29.25,29.25,0,0,1,1.72,2.41c2,2.52,5.51,3,8.65,3.58s6.7,1.81,7.74,4.83c.68,2,0,4.19-.38,6.27a1.85,1.85,0,0,0,.08,1.29c.5.81,1.72.48,2.65.67,1.79.37,2.25,2.67,2.29,4.49.08,2.09.14,4.17.18,6.26a6.17,6.17,0,0,1-2,5.23l-7,8.4c-3.1,3.72-6.39,8.06-5.76,12.86-1.47.66-3.21-.61-3.69-2.15a9.65,9.65,0,0,1,.23-4.76,58.94,58.94,0,0,0,1.1-8.26,8.29,8.29,0,0,0-.48-4.12,3.17,3.17,0,0,0-3.36-2c-1.81.43-2.59,2.78-4.36,3.35a3.43,3.43,0,0,1-3.84-2,10.23,10.23,0,0,1-.74-4.59v-5.3c0-1.92-.06-4-1.25-5.51-1.47-1.89-4.94-2.71-7.25-2.63a6.18,6.18,0,0,0-4.15,1.67A5.44,5.44,0,0,1,600.3,612.43Z" transform="translate(-13 -21.99)"/><path class="cls-10" d="M605.18,678.84l6.62,27.22S617,706,605.18,678.84Z" transform="translate(-13 -21.99)"/><path class="cls-10" d="M627.82,674.29s-8.68,14.21-5.29,28.9l1.61.12S621.25,696.51,627.82,674.29Z" transform="translate(-13 -21.99)"/><path class="cls-10" d="M633.32,754.69s10.65-3.52,11.42,4.66C644.74,759.35,642.73,753.74,633.32,754.69Z" transform="translate(-13 -21.99)"/><path class="cls-10" d="M602.53,707.75s-2.11,14.81,1.72,20.74A46.47,46.47,0,0,1,585.63,731l-1.29-23.27Z" transform="translate(-13 -21.99)"/><path class="cls-10" d="M604,726.79l-1,.57-6.56-14.77,6.14-5.5h.31C602.75,707.8,601,720.52,604,726.79Z" transform="translate(-13 -21.99)"/><path class="cls-28" d="M602.53,707.09s-2.11,14.81,1.72,20.73a46.57,46.57,0,0,1-18.62,2.54l-7.41-23.27Z" transform="translate(-13 -21.99)"/><path class="cls-26" d="M584.23,954.2a4.77,4.77,0,0,1-4.11,4.18c-5.73.86-19.58,3-23.08,4.71-4.44,2.12-22,.64-22.85-1.47a3.38,3.38,0,0,1,.3-2.55,6.83,6.83,0,0,1,2.87-3.05,6.58,6.58,0,0,1,1.27-.57c3.31-1.11,9.55-3.44,11.24-5.91,0,0,7.79-6.81,10-10.49a5.11,5.11,0,0,1,4.06-2.54c1.86-.08,3.92.85,4.77,4.91,0,0,10.15,5.8,12.89.71,0,0,.43,7.81,2.11,9.94h0A2.84,2.84,0,0,1,584.23,954.2Z" transform="translate(-13 -21.99)"/><path class="cls-10" d="M584.23,954.2a4.77,4.77,0,0,1-4.11,4.18c-5.73.86-19.58,3-23.08,4.71-4.44,2.12-22,.64-22.85-1.47a3.38,3.38,0,0,1,.3-2.55,6.83,6.83,0,0,1,2.87-3.05c2.86,1.9,9.22,3.76,23.2,1.57,13.33-2.08,19.93-4.12,23.15-5.51h0A2.82,2.82,0,0,1,584.23,954.2Z" transform="translate(-13 -21.99)"/><g class="cls-18"><path d="M642,608.22v-.1a20,20,0,0,0,.65-4.81,29.62,29.62,0,0,1-.65,3.86A2.33,2.33,0,0,0,642,608.22Z" transform="translate(-13 -21.99)"/><path d="M629.61,628a6.17,6.17,0,0,1,.53,2.42,7.21,7.21,0,0,0-.53-3.37,3.16,3.16,0,0,0-3.35-1.94c-1.81.42-2.59,2.78-4.36,3.35a3.47,3.47,0,0,1-3.85-2,10,10,0,0,1-.73-4.58V616.6c0-1.92-.06-4-1.25-5.51-1.47-1.88-5-2.7-7.25-2.63a6.19,6.19,0,0,0-4.15,1.67,5.35,5.35,0,0,1-4.36,1.56,3.76,3.76,0,0,1-3-2.63c-.18-.68-.14-1.41-.34-2.09-.5-1.67-2.29-2.53-3.43-3.79a6.89,6.89,0,0,1-1.79-4.48,7.2,7.2,0,0,0,1.79,5.43c1.19,1.26,3,2.13,3.43,3.79.2.68.16,1.41.34,2.09a3.76,3.76,0,0,0,3,2.63,5.35,5.35,0,0,0,4.36-1.55,6.15,6.15,0,0,1,4.15-1.68c2.29-.07,5.78.75,7.25,2.63,1.19,1.52,1.24,3.6,1.25,5.51v5.31a9.69,9.69,0,0,0,.73,4.58c.74,1.39,2.35,2.46,3.85,2,1.77-.58,2.55-2.93,4.36-3.35A3.18,3.18,0,0,1,629.61,628Z" transform="translate(-13 -21.99)"/><path d="M647,622.2a8.22,8.22,0,0,1-1.8,2.91l-7,8.39c-2.94,3.54-6.06,7.63-5.83,12.14.22-4.14,3.1-7.9,5.83-11.19l7-8.39a8.27,8.27,0,0,0,1.8-2.91,8,8,0,0,0,.18-2.29A6.09,6.09,0,0,1,647,622.2Z" transform="translate(-13 -21.99)"/><path d="M628.79,644.22a5.67,5.67,0,0,1-.21-1.15,5.69,5.69,0,0,0,.21,2.09c.48,1.53,2.23,2.8,3.7,2.14,0-.31-.07-.62-.08-.93C630.93,647,629.24,645.73,628.79,644.22Z" transform="translate(-13 -21.99)"/></g><path class="cls-10" d="M558.46,941s2.21,3.9,10.22.47" transform="translate(-13 -21.99)"/><path class="cls-10" d="M626.21,941.91s6.91,8.14,15.62,2.67" transform="translate(-13 -21.99)"/><path class="cls-10" d="M646.33,845.67s-4.89,3.05-5,4.8,2.52-1.27,2.52-1.27Z" transform="translate(-13 -21.99)"/><path class="cls-10" d="M648.27,869.06a10.17,10.17,0,0,1-6,2.35c-3.64.16-3.34,4.92-1,3.49A60,60,0,0,0,648.27,869.06Z" transform="translate(-13 -21.99)"/><path class="cls-10" d="M649.18,872.12s-2.34,11.51-4.24,9.29" transform="translate(-13 -21.99)"/><path class="cls-6" d="M167.12,925.69s3.15,4.11-1.45,10.31-8.4,11.46-6.88,15.34c0,0,6.94-11.54,12.61-11.7S173.34,932.63,167.12,925.69Z" transform="translate(-13 -21.99)"/><path class="cls-10" d="M167.12,925.69a4.86,4.86,0,0,1,.64,1.29c5.52,6.47,8.46,12.52,3.16,12.67-4.94.14-10.89,9-12.28,11.2a4.2,4.2,0,0,0,.17.5s6.94-11.54,12.6-11.7S173.34,932.63,167.12,925.69Z" transform="translate(-13 -21.99)"/><path class="cls-31" d="M173,930.93c0,1.45-.16,2.63-.36,2.63s-.36-1.18-.36-2.63.2-.76.4-.76S173,929.49,173,930.93Z" transform="translate(-13 -21.99)"/><path class="cls-31" d="M175,932.66c-1.27.7-2.38,1.11-2.48.94s.86-.88,2.13-1.57.77-.19.87,0S176.26,932,175,932.66Z" transform="translate(-13 -21.99)"/><path class="cls-6" d="M150.49,925.69S147.35,929.8,152,936s8.39,11.46,6.88,15.34c0,0-6.94-11.54-12.61-11.7S144.28,932.63,150.49,925.69Z" transform="translate(-13 -21.99)"/><path class="cls-10" d="M150.49,925.69a5.54,5.54,0,0,0-.64,1.29c-5.51,6.47-8.45,12.52-3.15,12.67,4.94.14,10.89,9,12.27,11.2a2.91,2.91,0,0,1-.16.5s-6.94-11.54-12.61-11.7S144.28,932.63,150.49,925.69Z" transform="translate(-13 -21.99)"/><path class="cls-31" d="M144.64,930.93c0,1.45.16,2.63.37,2.63s.36-1.18.36-2.63-.2-.76-.4-.76S144.64,929.49,144.64,930.93Z" transform="translate(-13 -21.99)"/><path class="cls-31" d="M142.64,932.66c1.27.7,2.38,1.11,2.47.94s-.86-.88-2.13-1.57-.76-.19-.86,0S141.37,932,142.64,932.66Z" transform="translate(-13 -21.99)"/><path class="cls-32" d="M145.65,950.82s8.8-.27,11.46-2.16,13.53-4.15,14.19-1.12,13.22,15.07,3.29,15.15-23.09-1.55-25.73-3.17S145.65,950.82,145.65,950.82Z" transform="translate(-13 -21.99)"/><path class="cls-5" d="M174.76,961.63c-9.93.08-23.08-1.54-25.73-3.16-2-1.23-2.82-5.63-3.09-7.67h-.29s.57,7.1,3.2,8.71,15.8,3.25,25.73,3.17c2.87,0,3.86-1,3.81-2.56C178,961,176.9,961.62,174.76,961.63Z" transform="translate(-13 -21.99)"/></svg>